Coordinates
version=1
nRows=40
nColumns=38
inDegrees=no

Units are S.I. units (second, meters, Newtons, ...)
If the header above contains a line with 'inDegrees', this indicates whether rotational values are in degrees (yes) or radians (no).

endheader
time	pelvis_tilt	pelvis_list	pelvis_rotation	pelvis_tx	pelvis_ty	pelvis_tz	hip_flexion_r	hip_adduction_r	hip_rotation_r	knee_angle_r	ankle_angle_r	subtalar_angle_r	mtp_angle_r	hip_flexion_l	hip_adduction_l	hip_rotation_l	knee_angle_l	ankle_angle_l	subtalar_angle_l	mtp_angle_l	lumbar_extension	lumbar_bending	lumbar_rotation	arm_flex_r	arm_add_r	arm_rot_r	elbow_flex_r	pro_sup_r	wrist_flex_r	wrist_dev_r	arm_flex_l	arm_add_l	arm_rot_l	elbow_flex_l	pro_sup_l	wrist_flex_l	wrist_dev_l
1.44	-0.197508	1.41622	-1.16419	0.460708	0.122425	0.930924	0.216088	-0.019785	-0.0568977	0.150992	-0.304841	0	0	-0.36936	-0.0565733	-0.0965496	0.276312	-0.0600707	0	0	-0.40631	0.145374	-0.0398411	-0.201982	-0.489001	0.390176	0.817341	0.957644	0	0	-0.108418	-0.273726	0.25363	0.658414	1.22385	0	0
1.45	-0.212089	1.41269	-1.14949	0.460173	0.111575	0.930627	0.218333	-0.0107929	-0.0596954	0.192373	-0.29003	0	0	-0.378662	-0.0638986	-0.0960578	0.287423	-0.062211	0	0	-0.407721	0.148059	-0.0413793	-0.200569	-0.490267	0.396849	0.817846	0.953973	0	0	-0.113895	-0.272828	0.24565	0.658677	1.23105	0	0
1.46	-0.229189	1.41127	-1.13239	0.459563	0.100382	0.930231	0.224098	-0.00222919	-0.065053	0.237054	-0.266278	0	0	-0.384848	-0.071183	-0.0961813	0.300729	-0.0688683	0	0	-0.407217	0.150233	-0.0468826	-0.197268	-0.489273	0.401365	0.81655	0.961286	0	0	-0.125005	-0.26558	0.212296	0.658641	1.26116	0	0
1.47	-0.247154	1.40896	-1.11216	0.459031	0.0888105	0.930072	0.219263	0.00753023	-0.0631689	0.248961	-0.270487	0	0	-0.392228	-0.0795735	-0.091104	0.312231	-0.0710989	0	0	-0.404085	0.153764	-0.0471008	-0.200241	-0.490263	0.407105	0.816595	0.94908	0	0	-0.125525	-0.270117	0.228379	0.655101	1.24727	0	0
1.48	-0.267317	1.409	-1.08974	0.458467	0.0769249	0.92981	0.217637	0.0157979	-0.060768	0.258302	-0.276738	0	0	-0.395407	-0.0875509	-0.0869389	0.327395	-0.0782121	0	0	-0.398834	0.15662	-0.0523338	-0.200089	-0.489512	0.413214	0.814296	0.948007	0	0	-0.132912	-0.267956	0.2168	0.652639	1.25583	0	0
1.49	-0.291216	1.41017	-1.06358	0.457896	0.0647725	0.929586	0.21375	0.0240351	-0.0527359	0.255201	-0.29993	0	0	-0.395572	-0.0955395	-0.0832287	0.345348	-0.0879004	0	0	-0.391537	0.159283	-0.0585418	-0.199226	-0.488765	0.421877	0.810698	0.947463	0	0	-0.142151	-0.264811	0.200968	0.650348	1.26742	0	0
1.5	-0.31808	1.41136	-1.03366	0.457336	0.0524185	0.929445	0.205709	0.0329639	-0.0412485	0.242537	-0.33571	0	0	-0.393018	-0.104358	-0.0796364	0.367379	-0.0990933	0	0	-0.381805	0.162133	-0.0538907	-0.217092	-0.475636	0.385911	0.807511	0.986271	0	0	-0.138148	-0.276932	0.247309	0.644651	1.23219	0	0
1.51	-0.357678	1.41412	-0.991163	0.456875	0.0397164	0.929287	0.196223	0.042867	-0.0270238	0.22285	-0.386053	0	0	-0.385273	-0.114328	-0.0779211	0.394164	-0.123218	0	0	-0.377317	0.167325	-0.101965	-0.157291	-0.502869	0.517987	0.796765	0.902303	0	0	-0.190171	-0.204881	-0.0228659	0.649383	1.45043	0	0
1.52	-0.386383	1.41487	-0.960145	0.45626	0.0270863	0.92928	0.188263	0.0515795	-0.0172977	0.220095	-0.40264	0	0	-0.37841	-0.123016	-0.0731271	0.423382	-0.139852	0	0	-0.368164	0.170573	-0.103798	-0.163465	-0.500532	0.516672	0.794437	0.904319	0	0	-0.195102	-0.206212	-0.0193288	0.645031	1.44745	0	0
1.53	-0.412537	1.41404	-0.932688	0.455618	0.0144441	0.9295	0.180881	0.0600057	-0.00887806	0.225505	-0.410108	0	0	-0.370811	-0.131489	-0.0662525	0.456481	-0.156731	0	0	-0.360839	0.174111	-0.104031	-0.170024	-0.498877	0.515089	0.792981	0.906109	0	0	-0.199894	-0.207752	-0.0148568	0.641228	1.44371	0	0
1.54	-0.439988	1.41177	-0.904803	0.454884	0.00182136	0.929922	0.174611	0.0691999	-0.00270797	0.238378	-0.406796	0	0	-0.360841	-0.141153	-0.0598816	0.495815	-0.175129	0	0	-0.354674	0.178467	-0.102766	-0.176784	-0.497577	0.513106	0.792007	0.908413	0	0	-0.204349	-0.209847	-0.00811997	0.63791	1.43731	0	0
1.55	-0.465803	1.41671	-0.878782	0.453536	-0.0114557	0.929103	0.219965	0.0479158	-0.0801559	0.382541	-0.343824	0	0	-0.340119	-0.148752	-0.0576203	0.545099	-0.204375	0	0	-0.339431	0.176314	-0.102009	-0.189277	-0.49339	0.506628	0.792567	0.913126	0	0	-0.213727	-0.21859	0.0101647	0.64112	1.41883	0	0
1.56	-0.494103	1.41232	-0.851528	0.452601	-0.0240144	0.929847	0.218285	0.0581069	-0.093383	0.410529	-0.33591	0	0	-0.323924	-0.161636	-0.0561446	0.596991	-0.234846	0	0	-0.33492	0.181873	-0.0970608	-0.198563	-0.49265	0.501158	0.794474	0.91578	0	0	-0.216465	-0.222279	0.0239081	0.63847	1.40765	0	0
1.57	-0.529066	1.39753	-0.82012	0.451792	-0.0357543	0.932298	0.151581	0.107507	0.0010086	0.276575	-0.378296	0	0	-0.311281	-0.181265	-0.0553021	0.652089	-0.278932	0	0	-0.340252	0.196395	-0.081737	-0.209252	-0.49273	0.487531	0.796255	0.920405	0	0	-0.207368	-0.229029	0.0640642	0.627282	1.37794	0	0
1.58	-0.521801	1.40171	-0.834158	0.45032	-0.0485598	0.931582	0.213977	0.0764437	-0.127156	0.477416	-0.297964	0	0	-0.284048	-0.181803	-0.0540472	0.717981	-0.319029	0	0	-0.334878	0.189408	-0.0862639	-0.211074	-0.495665	0.495883	0.804934	0.919903	0	0	-0.228986	-0.21753	0.00636652	0.641782	1.42163	0	0
1.59	-0.536308	1.39724	-0.825719	0.44914	-0.0603884	0.932181	0.207901	0.0847757	-0.136053	0.49867	-0.283586	0	0	-0.256849	-0.191846	-0.0548368	0.785809	-0.357636	0	0	-0.334892	0.192533	-0.0824573	-0.213275	-0.500687	0.503045	0.811966	0.914031	0	0	-0.237164	-0.213877	-0.00853658	0.646328	1.43231	0	0
1.6	-0.571812	1.37983	-0.79595	0.447853	-0.0712107	0.934623	0.108962	0.1421	0.0163518	0.283526	-0.353278	0	0	-0.234274	-0.215301	-0.0566382	0.85041	-0.418927	0	0	-0.338381	0.20879	-0.0406847	-0.255743	-0.487611	0.428861	0.820018	0.953516	0	0	-0.203374	-0.264293	0.186712	0.634397	1.27437	0	0
1.61	-0.568934	1.39184	-0.805024	0.446762	-0.0831944	0.932504	0.197529	0.0982082	-0.153125	0.539805	-0.245646	0	0	-0.191024	-0.20795	-0.0481827	0.924458	-0.449841	0	0	-0.330967	0.19695	-0.0843736	-0.194008	-0.52972	0.584162	0.829323	0.830974	0	0	-0.261063	-0.206912	-0.0430121	0.662665	1.44626	0	0
1.62	-0.582095	1.38828	-0.796999	0.445732	-0.094105	0.932634	0.188283	0.105725	-0.15849	0.550924	-0.236788	0	0	-0.157198	-0.213884	-0.0382528	0.992881	-0.473623	0	0	-0.33104	0.199935	-0.0777764	-0.201309	-0.533397	0.578782	0.839555	0.831543	0	0	-0.266338	-0.212356	-0.0299544	0.670406	1.43135	0	0
1.63	-0.613852	1.37199	-0.770083	0.444517	-0.104127	0.934702	0.0983494	0.157962	-0.0181922	0.358271	-0.283088	0	0	-0.129777	-0.233912	-0.0309314	1.05519	-0.501378	0	0	-0.34071	0.215446	-0.0625066	-0.207414	-0.535597	0.568916	0.844718	0.834252	0	0	-0.258866	-0.220647	0.00353607	0.667211	1.40363	0	0
1.64	-0.590351	1.37967	-0.795871	0.444114	-0.114931	0.933432	0.164565	0.120098	-0.170825	0.568273	-0.209776	0	0	-0.0908214	-0.222601	-0.0163151	1.1214	-0.516902	0	0	-0.335	0.205493	-0.0608813	-0.221045	-0.536596	0.554449	0.858599	0.840402	0	0	-0.268104	-0.235861	0.0346223	0.685022	1.36917	0	0
1.65	-0.582292	1.37428	-0.805131	0.443453	-0.124955	0.934408	0.146284	0.127502	-0.169872	0.566289	-0.203135	0	0	-0.0597068	-0.224727	-0.00319913	1.17913	-0.524666	0	0	-0.340556	0.207544	-0.0556089	-0.226049	-0.536614	0.54677	0.864316	0.843844	0	0	-0.267893	-0.242399	0.0488116	0.690819	1.35568	0	0
1.66	-0.56972	1.36843	-0.818017	0.442814	-0.134665	0.935817	0.118819	0.14097	-0.145207	0.542104	-0.196739	0	0	-0.0297229	-0.225591	0.010177	1.23198	-0.514951	0	0	-0.347318	0.20894	-0.0497593	-0.23016	-0.534083	0.537473	0.866396	0.848466	0	0	-0.264846	-0.250152	0.0668332	0.694672	1.34044	0	0
1.67	-0.540786	1.36467	-0.845791	0.442254	-0.144405	0.937175	0.102294	0.138044	-0.160198	0.553517	-0.188305	0	0	-0.00151155	-0.221923	0.02199	1.27942	-0.496535	0	0	-0.353841	0.206008	-0.0460499	-0.234529	-0.529535	0.527499	0.867294	0.853758	0	0	-0.262532	-0.25934	0.0845411	0.70016	1.32584	0	0
1.68	-0.54948	1.3504	-0.843098	0.440928	-0.155479	0.93759	0.071816	0.156498	-0.154473	0.539733	-0.183324	0	0	0.0337543	-0.311693	-0.0999541	1.34213	-0.513023	0	0	-0.367038	0.213982	-0.0514893	-0.224215	-0.537822	0.54591	0.878285	0.850441	0	0	-0.287063	-0.231239	-0.0157306	0.719949	1.40679	0	0
1.69	-0.502353	1.33231	-0.882728	0.440609	-0.165298	0.940946	0.0934579	0.10542	-0.369099	0.709618	-0.180175	0	0	0.0443222	-0.316021	-0.0876515	1.37173	-0.492642	0	0	-0.388843	0.217314	-0.0575316	-0.211904	-0.538098	0.566199	0.874915	0.830276	0	0	-0.289005	-0.231691	-0.0282105	0.726738	1.41246	0	0
1.7	-0.466855	1.35777	-0.919852	0.440228	-0.172474	0.941699	0.0345076	0.143587	-0.150193	0.519327	-0.173144	0	0	0.0841531	-0.210298	0.0365066	1.39057	-0.429329	0	0	-0.374498	0.192987	-0.0605895	-0.194462	-0.528641	0.586595	0.851756	0.81657	0	0	-0.276361	-0.230417	-0.0348103	0.711593	1.4226	0	0
1.71	-0.469941	1.34565	-0.925275	0.438658	-0.182984	0.942414	0.00178939	0.159722	-0.136652	0.49682	-0.172641	0	0	0.114703	-0.289852	-0.0748573	1.42923	-0.454107	0	0	-0.377763	0.197518	-0.00896221	-0.267996	-0.495309	0.441091	0.86636	0.921038	0	0	-0.242538	-0.300627	0.180374	0.716925	1.24939	0	0
1.72	-0.417434	1.35509	-0.973154	0.438733	-0.190656	0.944529	-0.00994613	0.145114	-0.142697	0.490031	-0.172386	0	0	0.137742	-0.200707	0.0338742	1.43344	-0.403832	0	0	-0.377757	0.181779	-0.0282972	-0.223519	-0.507499	0.529793	0.8452	0.843316	0	0	-0.244093	-0.286763	0.130123	0.706566	1.28896	0	0
1.73	-0.414125	1.34454	-0.987199	0.437189	-0.200929	0.945321	-0.0403732	0.155753	-0.134466	0.472972	-0.170447	0	0	0.163047	-0.270013	-0.0676914	1.4577	-0.412654	0	0	-0.387395	0.182372	-0.0144825	-0.229902	-0.507406	0.520838	0.852863	0.850041	0	0	-0.24729	-0.294576	0.142673	0.717756	1.27601	0	0
1.74	-0.381198	1.34423	-1.02615	0.436404	-0.209619	0.946722	-0.0599302	0.150989	-0.132851	0.464852	-0.168434	0	0	0.183611	-0.259956	-0.0708354	1.46307	-0.391279	0	0	-0.392994	0.172932	-0.00683479	-0.22811	-0.501916	0.516158	0.848052	0.855111	0	0	-0.240716	-0.299464	0.153262	0.716477	1.26915	0	0
1.75	-0.323274	1.35255	-1.08356	0.436389	-0.217029	0.9485	-0.07072	0.134882	-0.135723	0.459741	-0.167271	0	0	0.202642	-0.181089	0.0125111	1.45079	-0.351109	0	0	-0.393864	0.156139	-0.0050707	-0.221417	-0.490511	0.511749	0.83236	0.861614	0	0	-0.224666	-0.304229	0.169055	0.704557	1.26216	0	0
1.76	-0.31507	1.3444	-1.10233	0.435132	-0.227069	0.949191	-0.0982197	0.140151	-0.129673	0.446729	-0.164697	0	0	0.221782	-0.238589	-0.0782728	1.45691	-0.358076	0	0	-0.403832	0.153416	-0.00167276	-0.216249	-0.492665	0.518914	0.836869	0.862966	0	0	-0.237406	-0.294843	0.124715	0.714713	1.29527	0	0
1.77	-0.284285	1.3442	-1.13851	0.434568	-0.235681	0.95019	-0.117735	0.135307	-0.122638	0.435164	-0.163371	0	0	0.238777	-0.228859	-0.0845385	1.44611	-0.343133	0	0	-0.408925	0.144123	0.00147993	-0.209197	-0.491775	0.527937	0.833916	0.854861	0	0	-0.235574	-0.295488	0.11892	0.715911	1.29958	0	0
1.78	-0.235902	1.35211	-1.18604	0.434764	-0.243075	0.951213	-0.126026	0.121841	-0.122782	0.430397	-0.161382	0	0	0.257252	-0.163459	-0.0187953	1.41921	-0.301018	0	0	-0.408221	0.130366	-0.000916936	-0.197596	-0.487047	0.53907	0.822264	0.843911	0	0	-0.225708	-0.295137	0.115373	0.70773	1.30723	0	0
1.79	-0.216105	1.3527	-1.20985	0.434539	-0.251482	0.951566	-0.14099	0.118397	-0.119684	0.423358	-0.158369	0	0	0.276488	-0.166077	-0.0401104	1.40246	-0.285857	0	0	-0.410706	0.124293	0.00175319	-0.193088	-0.487295	0.544034	0.822217	0.836747	0	0	-0.22365	-0.29607	0.112109	0.709247	1.31012	0	0
1.8	-0.200822	1.34873	-1.23055	0.434257	-0.260402	0.95199	-0.162476	0.117725	-0.115389	0.412328	-0.156366	0	0	0.288763	-0.175742	-0.0687549	1.38248	-0.273514	0	0	-0.416275	0.12021	0.00633532	-0.190325	-0.489051	0.549817	0.824534	0.831028	0	0	-0.223839	-0.297644	0.109813	0.713381	1.31137	0	0
1.81	-0.173781	1.3496	-1.2575	0.434531	-0.268347	0.952445	-0.178535	0.112775	-0.111948	0.400951	-0.156437	0	0	0.300827	-0.153754	-0.055808	1.34823	-0.245876	0	0	-0.41702	0.114056	0.0320391	-0.227258	-0.462419	0.45599	0.82353	0.910311	0	0	-0.190134	-0.328916	0.219499	0.705891	1.23528	0	0
1.82	-0.158381	1.3479	-1.27384	0.434843	-0.27656	0.952619	-0.197498	0.111339	-0.106657	0.387503	-0.157885	0	0	0.312073	-0.150682	-0.0668634	1.31443	-0.234561	0	0	-0.418129	0.111176	0.0355172	-0.216196	-0.476171	0.499494	0.825188	0.850816	0	0	-0.180824	-0.342123	0.260722	0.706861	1.19973	0	0
1.83	-0.145207	1.34726	-1.28687	0.435337	-0.284762	0.952648	-0.214591	0.109948	-0.103491	0.375922	-0.158161	0	0	0.322931	-0.146963	-0.0768171	1.27479	-0.23102	0	0	-0.420966	0.108993	0.0385989	-0.217481	-0.473841	0.491565	0.825212	0.855786	0	0	-0.174413	-0.34335	0.265712	0.70578	1.19964	0	0
